<mxfile host="app.diagrams.net" agent="Mozilla/5.0 (Macintosh; Intel Mac OS X 10_15_7) AppleWebKit/537.36 (KHTML, like Gecko) Chrome/134.0.0.0 Safari/537.36 Edg/134.0.0.0" version="26.1.3">
  <diagram name="Page-1" id="2YHW4Xg_3vIvuOFXE-gm">
    <mxGraphModel dx="1379" dy="798" grid="1" gridSize="10" guides="1" tooltips="1" connect="1" arrows="1" fold="1" page="1" pageScale="1" pageWidth="850" pageHeight="1100" math="0" shadow="0">
      <root>
        <mxCell id="0" />
        <mxCell id="1" parent="0" />
        <mxCell id="1dc72ylVYyOBTAYNuu3b-1" value="Student" style="shape=umlActor;verticalLabelPosition=bottom;verticalAlign=top;html=1;" vertex="1" parent="1">
          <mxGeometry x="86" y="200" width="30" height="60" as="geometry" />
        </mxCell>
        <mxCell id="1dc72ylVYyOBTAYNuu3b-2" value="UI" style="rounded=0;whiteSpace=wrap;html=1;" vertex="1" parent="1">
          <mxGeometry x="280" y="200" width="120" height="60" as="geometry" />
        </mxCell>
        <mxCell id="1dc72ylVYyOBTAYNuu3b-3" value="API&lt;div&gt;Server&lt;/div&gt;" style="rounded=0;whiteSpace=wrap;html=1;" vertex="1" parent="1">
          <mxGeometry x="560" y="200" width="120" height="60" as="geometry" />
        </mxCell>
        <mxCell id="1dc72ylVYyOBTAYNuu3b-6" value="CDN&lt;div&gt;(Content Delivery Network)&lt;/div&gt;" style="rounded=0;whiteSpace=wrap;html=1;" vertex="1" parent="1">
          <mxGeometry x="1100" y="200" width="160" height="60" as="geometry" />
        </mxCell>
        <mxCell id="1dc72ylVYyOBTAYNuu3b-7" value="Database" style="rounded=0;whiteSpace=wrap;html=1;" vertex="1" parent="1">
          <mxGeometry x="840" y="200" width="120" height="60" as="geometry" />
        </mxCell>
        <mxCell id="1dc72ylVYyOBTAYNuu3b-8" value="" style="endArrow=none;dashed=1;html=1;rounded=0;" edge="1" parent="1" source="1dc72ylVYyOBTAYNuu3b-13">
          <mxGeometry width="50" height="50" relative="1" as="geometry">
            <mxPoint x="100" y="930" as="sourcePoint" />
            <mxPoint x="100" y="280" as="targetPoint" />
          </mxGeometry>
        </mxCell>
        <mxCell id="1dc72ylVYyOBTAYNuu3b-9" value="" style="endArrow=none;dashed=1;html=1;rounded=0;" edge="1" parent="1">
          <mxGeometry width="50" height="50" relative="1" as="geometry">
            <mxPoint x="339" y="930" as="sourcePoint" />
            <mxPoint x="339.47" y="260" as="targetPoint" />
          </mxGeometry>
        </mxCell>
        <mxCell id="1dc72ylVYyOBTAYNuu3b-10" value="" style="endArrow=none;dashed=1;html=1;rounded=0;" edge="1" parent="1">
          <mxGeometry width="50" height="50" relative="1" as="geometry">
            <mxPoint x="619.47" y="930" as="sourcePoint" />
            <mxPoint x="619.94" y="260" as="targetPoint" />
          </mxGeometry>
        </mxCell>
        <mxCell id="1dc72ylVYyOBTAYNuu3b-11" value="" style="endArrow=none;dashed=1;html=1;rounded=0;" edge="1" parent="1" source="1dc72ylVYyOBTAYNuu3b-21">
          <mxGeometry width="50" height="50" relative="1" as="geometry">
            <mxPoint x="899.47" y="930" as="sourcePoint" />
            <mxPoint x="899.94" y="260" as="targetPoint" />
          </mxGeometry>
        </mxCell>
        <mxCell id="1dc72ylVYyOBTAYNuu3b-12" value="" style="endArrow=none;dashed=1;html=1;rounded=0;" edge="1" parent="1">
          <mxGeometry width="50" height="50" relative="1" as="geometry">
            <mxPoint x="1179.73" y="930" as="sourcePoint" />
            <mxPoint x="1180.2" y="260" as="targetPoint" />
          </mxGeometry>
        </mxCell>
        <mxCell id="1dc72ylVYyOBTAYNuu3b-14" value="" style="endArrow=none;dashed=1;html=1;rounded=0;" edge="1" parent="1" target="1dc72ylVYyOBTAYNuu3b-13">
          <mxGeometry width="50" height="50" relative="1" as="geometry">
            <mxPoint x="100" y="930" as="sourcePoint" />
            <mxPoint x="100" y="280" as="targetPoint" />
          </mxGeometry>
        </mxCell>
        <mxCell id="1dc72ylVYyOBTAYNuu3b-13" value="" style="rounded=0;whiteSpace=wrap;html=1;" vertex="1" parent="1">
          <mxGeometry x="96" y="292" width="10" height="620" as="geometry" />
        </mxCell>
        <mxCell id="1dc72ylVYyOBTAYNuu3b-15" value="" style="rounded=0;whiteSpace=wrap;html=1;" vertex="1" parent="1">
          <mxGeometry x="335" y="290" width="10" height="620" as="geometry" />
        </mxCell>
        <mxCell id="1dc72ylVYyOBTAYNuu3b-16" value="" style="endArrow=classic;html=1;rounded=0;" edge="1" parent="1">
          <mxGeometry width="50" height="50" relative="1" as="geometry">
            <mxPoint x="106" y="340" as="sourcePoint" />
            <mxPoint x="330" y="340" as="targetPoint" />
          </mxGeometry>
        </mxCell>
        <mxCell id="1dc72ylVYyOBTAYNuu3b-17" value="Access content&lt;div&gt;detail ID: xx&lt;/div&gt;" style="text;html=1;align=center;verticalAlign=middle;resizable=0;points=[];autosize=1;strokeColor=none;fillColor=none;" vertex="1" parent="1">
          <mxGeometry x="170" y="300" width="100" height="40" as="geometry" />
        </mxCell>
        <mxCell id="1dc72ylVYyOBTAYNuu3b-18" value="" style="rounded=0;whiteSpace=wrap;html=1;" vertex="1" parent="1">
          <mxGeometry x="615" y="340" width="10" height="360" as="geometry" />
        </mxCell>
        <mxCell id="1dc72ylVYyOBTAYNuu3b-19" value="" style="endArrow=classic;html=1;rounded=0;" edge="1" parent="1">
          <mxGeometry width="50" height="50" relative="1" as="geometry">
            <mxPoint x="345" y="390" as="sourcePoint" />
            <mxPoint x="610" y="390" as="targetPoint" />
          </mxGeometry>
        </mxCell>
        <mxCell id="1dc72ylVYyOBTAYNuu3b-20" value="Request&lt;div&gt;content detail ID: xx&lt;/div&gt;" style="text;html=1;align=center;verticalAlign=middle;resizable=0;points=[];autosize=1;strokeColor=none;fillColor=none;" vertex="1" parent="1">
          <mxGeometry x="420" y="350" width="130" height="40" as="geometry" />
        </mxCell>
        <mxCell id="1dc72ylVYyOBTAYNuu3b-22" value="" style="endArrow=none;dashed=1;html=1;rounded=0;" edge="1" parent="1" target="1dc72ylVYyOBTAYNuu3b-21">
          <mxGeometry width="50" height="50" relative="1" as="geometry">
            <mxPoint x="899.47" y="930" as="sourcePoint" />
            <mxPoint x="899.94" y="260" as="targetPoint" />
          </mxGeometry>
        </mxCell>
        <mxCell id="1dc72ylVYyOBTAYNuu3b-21" value="" style="rounded=0;whiteSpace=wrap;html=1;" vertex="1" parent="1">
          <mxGeometry x="895" y="400" width="10" height="130" as="geometry" />
        </mxCell>
        <mxCell id="1dc72ylVYyOBTAYNuu3b-24" value="" style="endArrow=classic;html=1;rounded=0;" edge="1" parent="1">
          <mxGeometry width="50" height="50" relative="1" as="geometry">
            <mxPoint x="630" y="430" as="sourcePoint" />
            <mxPoint x="895" y="430" as="targetPoint" />
          </mxGeometry>
        </mxCell>
        <mxCell id="1dc72ylVYyOBTAYNuu3b-25" value="Query data&lt;div&gt;relate to content ID: xx&lt;/div&gt;" style="text;html=1;align=center;verticalAlign=middle;resizable=0;points=[];autosize=1;strokeColor=none;fillColor=none;" vertex="1" parent="1">
          <mxGeometry x="685" y="390" width="140" height="40" as="geometry" />
        </mxCell>
        <mxCell id="1dc72ylVYyOBTAYNuu3b-27" value="" style="endArrow=classic;html=1;rounded=0;entryX=1.331;entryY=0.315;entryDx=0;entryDy=0;entryPerimeter=0;exitX=-0.106;exitY=0.696;exitDx=0;exitDy=0;exitPerimeter=0;" edge="1" parent="1">
          <mxGeometry width="50" height="50" relative="1" as="geometry">
            <mxPoint x="890.6300000000001" y="509.69000000000005" as="sourcePoint" />
            <mxPoint x="625" y="510.03999999999996" as="targetPoint" />
          </mxGeometry>
        </mxCell>
        <mxCell id="1dc72ylVYyOBTAYNuu3b-28" value="&lt;div&gt;Return content information&lt;/div&gt;&lt;div&gt;for ID: xx&lt;/div&gt;" style="text;html=1;align=center;verticalAlign=middle;resizable=0;points=[];autosize=1;strokeColor=none;fillColor=none;" vertex="1" parent="1">
          <mxGeometry x="680" y="470" width="160" height="40" as="geometry" />
        </mxCell>
        <mxCell id="1dc72ylVYyOBTAYNuu3b-29" value="" style="endArrow=classic;html=1;rounded=0;entryX=1.331;entryY=0.315;entryDx=0;entryDy=0;entryPerimeter=0;exitX=-0.106;exitY=0.696;exitDx=0;exitDy=0;exitPerimeter=0;" edge="1" parent="1">
          <mxGeometry width="50" height="50" relative="1" as="geometry">
            <mxPoint x="610.6300000000001" y="644.57" as="sourcePoint" />
            <mxPoint x="345" y="644.92" as="targetPoint" />
          </mxGeometry>
        </mxCell>
        <mxCell id="1dc72ylVYyOBTAYNuu3b-30" value="&lt;div&gt;Return content information&lt;/div&gt;&lt;div&gt;for ID: xx&lt;/div&gt;" style="text;html=1;align=center;verticalAlign=middle;resizable=0;points=[];autosize=1;strokeColor=none;fillColor=none;" vertex="1" parent="1">
          <mxGeometry x="400" y="604.88" width="160" height="40" as="geometry" />
        </mxCell>
        <mxCell id="1dc72ylVYyOBTAYNuu3b-31" value="" style="html=1;points=[[0,0,0,0,5],[0,1,0,0,-5],[1,0,0,0,5],[1,1,0,0,-5]];perimeter=orthogonalPerimeter;outlineConnect=0;targetShapes=umlLifeline;portConstraint=eastwest;newEdgeStyle={&quot;curved&quot;:0,&quot;rounded&quot;:0};" vertex="1" parent="1">
          <mxGeometry x="620" y="543" width="10" height="40" as="geometry" />
        </mxCell>
        <mxCell id="1dc72ylVYyOBTAYNuu3b-32" value="" style="endArrow=classic;html=1;rounded=0;entryX=1;entryY=1;entryDx=0;entryDy=-5;entryPerimeter=0;" edge="1" parent="1" target="1dc72ylVYyOBTAYNuu3b-31">
          <mxGeometry width="50" height="50" relative="1" as="geometry">
            <mxPoint x="630" y="550" as="sourcePoint" />
            <mxPoint x="640" y="580" as="targetPoint" />
            <Array as="points">
              <mxPoint x="670" y="550" />
              <mxPoint x="670" y="570" />
              <mxPoint x="670" y="580" />
            </Array>
          </mxGeometry>
        </mxCell>
        <mxCell id="1dc72ylVYyOBTAYNuu3b-33" value="Organize return payload" style="text;html=1;align=center;verticalAlign=middle;resizable=0;points=[];autosize=1;strokeColor=none;fillColor=none;" vertex="1" parent="1">
          <mxGeometry x="670" y="550" width="150" height="30" as="geometry" />
        </mxCell>
        <mxCell id="1dc72ylVYyOBTAYNuu3b-34" value="" style="endArrow=classic;html=1;rounded=0;entryX=1.331;entryY=0.315;entryDx=0;entryDy=0;entryPerimeter=0;" edge="1" parent="1">
          <mxGeometry width="50" height="50" relative="1" as="geometry">
            <mxPoint x="330" y="670" as="sourcePoint" />
            <mxPoint x="106" y="670.04" as="targetPoint" />
          </mxGeometry>
        </mxCell>
        <mxCell id="1dc72ylVYyOBTAYNuu3b-35" value="&lt;div&gt;Display relevant content&lt;/div&gt;&lt;div&gt;for user&lt;/div&gt;" style="text;html=1;align=center;verticalAlign=middle;resizable=0;points=[];autosize=1;strokeColor=none;fillColor=none;" vertex="1" parent="1">
          <mxGeometry x="145" y="630" width="150" height="40" as="geometry" />
        </mxCell>
        <mxCell id="1dc72ylVYyOBTAYNuu3b-36" value="" style="rounded=0;whiteSpace=wrap;html=1;" vertex="1" parent="1">
          <mxGeometry x="1175" y="770" width="10" height="130" as="geometry" />
        </mxCell>
        <mxCell id="1dc72ylVYyOBTAYNuu3b-37" value="" style="endArrow=classic;html=1;rounded=0;" edge="1" parent="1">
          <mxGeometry width="50" height="50" relative="1" as="geometry">
            <mxPoint x="110" y="760" as="sourcePoint" />
            <mxPoint x="330" y="760" as="targetPoint" />
          </mxGeometry>
        </mxCell>
        <mxCell id="1dc72ylVYyOBTAYNuu3b-38" value="&lt;div&gt;Play video&lt;/div&gt;" style="text;html=1;align=center;verticalAlign=middle;resizable=0;points=[];autosize=1;strokeColor=none;fillColor=none;" vertex="1" parent="1">
          <mxGeometry x="180" y="730" width="80" height="30" as="geometry" />
        </mxCell>
        <mxCell id="1dc72ylVYyOBTAYNuu3b-39" value="" style="endArrow=classic;html=1;rounded=0;" edge="1" parent="1">
          <mxGeometry width="50" height="50" relative="1" as="geometry">
            <mxPoint x="345" y="800" as="sourcePoint" />
            <mxPoint x="1170" y="800" as="targetPoint" />
          </mxGeometry>
        </mxCell>
        <mxCell id="1dc72ylVYyOBTAYNuu3b-40" value="&lt;div&gt;Request video data (byte buffer)&lt;/div&gt;&lt;div&gt;from particular url&lt;/div&gt;" style="text;html=1;align=center;verticalAlign=middle;resizable=0;points=[];autosize=1;strokeColor=none;fillColor=none;" vertex="1" parent="1">
          <mxGeometry x="700" y="760" width="190" height="40" as="geometry" />
        </mxCell>
        <mxCell id="1dc72ylVYyOBTAYNuu3b-43" value="" style="endArrow=classic;html=1;rounded=0;" edge="1" parent="1">
          <mxGeometry width="50" height="50" relative="1" as="geometry">
            <mxPoint x="1170" y="860" as="sourcePoint" />
            <mxPoint x="350" y="860" as="targetPoint" />
          </mxGeometry>
        </mxCell>
        <mxCell id="1dc72ylVYyOBTAYNuu3b-44" value="&lt;div&gt;Return steaming data&lt;/div&gt;" style="text;html=1;align=center;verticalAlign=middle;resizable=0;points=[];autosize=1;strokeColor=none;fillColor=none;" vertex="1" parent="1">
          <mxGeometry x="725" y="830" width="140" height="30" as="geometry" />
        </mxCell>
        <mxCell id="1dc72ylVYyOBTAYNuu3b-45" value="" style="endArrow=classic;html=1;rounded=0;entryX=1.109;entryY=0.963;entryDx=0;entryDy=0;entryPerimeter=0;" edge="1" parent="1" target="1dc72ylVYyOBTAYNuu3b-13">
          <mxGeometry width="50" height="50" relative="1" as="geometry">
            <mxPoint x="335" y="890" as="sourcePoint" />
            <mxPoint x="555" y="890" as="targetPoint" />
          </mxGeometry>
        </mxCell>
        <mxCell id="1dc72ylVYyOBTAYNuu3b-46" value="Show video&lt;div&gt;to user&lt;/div&gt;" style="text;html=1;align=center;verticalAlign=middle;resizable=0;points=[];autosize=1;strokeColor=none;fillColor=none;" vertex="1" parent="1">
          <mxGeometry x="175" y="850" width="90" height="40" as="geometry" />
        </mxCell>
      </root>
    </mxGraphModel>
  </diagram>
</mxfile>
